<?xml version="1.0" encoding="UTF-8" standalone="no"?>
<svg
  viewBox="85.305 1604.637 7594.675 1318.392"
  width="7594.675"
  height="1318.392"
  version="1.1"
  xmlns="http://www.w3.org/2000/svg"
  xmlns:svg="http://www.w3.org/2000/svg"
>
  <g>
    <path
      d="m 57333.4,3067.2 c -0.4,39.4 0.5,78.8 0.8,118 0.6,65.2 0.4,130.2 4.3,195.3 4.4,53.7 11.3,107.2 16,161 2.7,29.1 4.2,58.4 4.1,87.6 -0.1,20.8 -1,41.6 -0.8,62.3 2,7 3.2,14.3 3.2,21.8 0,42.4 -34.7,77.9 -76.8,79.3 -11.7,3.9 -24.3,5.4 -36.8,3.2 -21.8,-0.6 -43.8,0.3 -65.5,0.3 -36.9,0 -73.7,0.3 -110.5,1.1 -51.9,1.2 -103.6,5.5 -155.4,7.2 -7.2,0.2 -14.3,0.3 -21.5,0.5 -0.2,2.1 -0.4,4.1 -0.5,6.1 -1.8,33.9 -0.9,67.8 0,101.7 1,42.4 0.1,84.8 0.1,127.2 0,106.6 0,213.3 0,320 0,80.1 -0.5,160.3 0.7,240.6 1.1,76.3 4.4,152.6 4.4,228.9 0,80.1 0,160.2 0,240.3 0,39.6 0,79.2 0,118.9 0,27.5 -0.4,55.1 0.4,82.7 3,6.7 5.1,13.8 6.1,21.3 4.7,33.8 -13.5,66.1 -42.4,81.2 -0.6,0.4 -1.3,0.6 -2,1 -6.6,11.1 -15.6,20.9 -27.1,28.2 -29,18.2 -67.9,13.9 -101.3,15.5 -43.9,3.6 -87.2,11.2 -130.9,15.7 -76.6,7.8 -154,5.9 -230.9,5 -76.1,-0.9 -152.2,-1.7 -228.4,-1.6 -73.5,0.1 -147.1,1.6 -220.7,1.3 -69.8,-0.4 -139.6,-3.2 -209.3,-3.6 -34.2,-0.2 -68.3,-0.4 -102.4,-2.1 -35.9,-1.8 -71.6,-5.5 -107.4,-8.1 -29.9,-1.6 -59.7,-1.6 -89.6,-1.6 -21.9,0 -43.9,0.1 -65.8,-0.5 -21,-0.6 -42.1,-1.7 -63,-4.3 -21.7,-2.7 -43.1,-6.8 -64.8,-9 -8.1,-0.1 -16.3,0 -24.5,0.1 -24,0.4 -48.5,0.8 -70.1,-7.5 -21.4,-8.2 -37.2,-26.8 -45,-48.1 -4.6,-8.5 -7.7,-18 -9.2,-28 -2,-14.3 -1.1,-29.3 -1.7,-43.7 -0.6,-15.2 -1.4,-30.4 -2.3,-45.7 0,0.7 0.1,1.4 0.1,2.1 -0.3,-5.5 -0.7,-10.9 -1,-16.3 0,0.1 0,0.2 0,0.3 -3.3,-47.7 -6.4,-95.5 -7.2,-143.4 -0.8,-52.3 -1.2,-104.6 -1.9,-156.9 -0.7,-44.4 -0.7,-88.8 -1.7,-133.1 -0.1,-6.2 -0.1,-12.4 -0.1,-18.6 -3.7,0 -7.3,0 -10.9,0 -74.4,0 -148.6,0.2 -222.7,-5.8 -30.1,-2.4 -60.3,-5.6 -90.1,-10.9 -13.9,-2.5 -27.7,-5.4 -41.4,-8.6 3,74.3 6.5,148.7 7.4,223.1 1.8,147.7 8.1,295.3 7.8,443 -0.1,73.3 -1.5,146.5 -1.5,219.8 0,72.2 0,144.4 0,216.7 0,145.1 0.4,290.2 -0.1,435.3 -0.2,75.7 -0.5,151.5 -0.5,227.2 0,71.8 -0.9,143.6 3.3,215.3 4.2,74.7 4.8,149.2 4.5,224.1 -0.2,42.7 -1,85.5 -1.9,128.4 -0.4,20.6 -1,41.5 -0.6,62.2 1.5,6.1 2.6,12.3 2.6,18.9 0,5.5 -0.6,11 -1.7,16.2 -4.5,33.3 -30,60.7 -62.6,67.4 -8.7,7.9 -19,13.8 -31,16.3 -17.8,3.8 -35.7,3.5 -53.8,4.5 -23.2,1.7 -46.5,3.2 -69.6,4.7 -18.3,1.4 -36.5,3.7 -54.7,5.5 -20.3,1.9 -40.8,2.8 -61.2,4.1 -90.7,6.6 -181.4,12 -272.4,12.6 -98,0.8 -196,0.5 -293.8,6.7 -36.2,2.8 -72.3,5.8 -108.4,6.9 -36,1.1 -71.9,1.5 -107.9,3 -73.8,3.1 -147.6,2.2 -221.5,2.9 -75.8,0.8 -151.5,3.4 -227.3,3.5 -74.6,0.1 -148.9,1.4 -223.3,-3 0.3,0.1 0.6,0.1 0.9,0.1 -0.3,0 -0.7,0 -1,-0.1 -1.5,0 -3,-0.1 -4.5,-0.2 0.6,0 1.1,0 1.7,0.1 -0.9,-0.1 -1.7,-0.1 -2.6,-0.2 -1.4,-0.1 -2.9,-0.2 -4.3,-0.3 0.8,0.1 1.6,0.2 2.5,0.2 -54.3,-3.1 -108.4,-1.9 -161.8,-14.6 -18.4,-4.5 -38.9,-9.4 -53.7,-21.7 -22,-18.1 -32.6,-43.1 -30.9,-69.3 0,-0.1 0,-0.2 -0.1,-0.3 0,1.2 -0.3,2.3 -0.3,3.5 0.1,-1.3 0.2,-2.7 0.3,-4.1 -1.7,-15 -1.2,-31 -0.6,-45 0.9,-23.6 2.3,-47.3 4.3,-70.8 3.4,-41.6 7.5,-83 10.6,-124.5 6.9,-125 7.4,-250.4 7.7,-375.6 0,-75.7 0.5,-151.4 1.7,-227.1 1.2,-79.1 4.3,-158 5.5,-237 2.4,-152.9 2.8,-305.6 2.8,-458.5 0,-151.1 1.8,-302.4 -1,-453.5 -0.1,-1.4 -0.1,-2.8 -0.1,-4.2 -3.5,0 -7,0 -10.5,0.2 -17.8,1.6 -35.5,4.6 -53.5,5.6 -16.8,0.8 -33.8,0.9 -50.6,1.9 -29,2 -57.9,3.6 -86.9,5.3 -40.4,2.4 -80.9,2.1 -121.3,4.6 -51.2,3.4 -102,5.4 -153.2,5.9 -61,0.6 -121.8,1.1 -182.6,-3.1 3.5,0.2 7.2,0.5 10.7,0.7 -29.5,-2 -59,-2 -88.4,-5.4 -8.6,-1 -17.2,-1.6 -25.8,-2.6 -11.2,-1.3 -22.1,-3.8 -33.1,-6.2 -8,-1.4 -15.9,-2.7 -23.8,-5.9 -17.9,-7.3 -31.7,-21.2 -40.1,-38 -6.8,-5.8 -12.7,-12.7 -17.2,-20.3 -8.8,-15.1 -11.3,-31.9 -12.2,-49 -2.2,-40.9 -2.7,-81.9 -5,-122.9 -2.3,-31.1 -5,-62 -7.1,-93.1 -5.7,-83.4 -7.5,-167 -5.9,-250.5 0.3,-16.8 0.7,-33.5 0.8,-50.2 -40.4,0.7 -80.9,1.6 -121.4,1.6 -11,0 -22,0 -33,0 -0.1,5 0,10.1 -0.3,15.1 -0.9,18.3 -2.7,36.6 -4.1,54.9 -0.4,6.4 -0.8,12.7 -1.1,19 -0.7,10.6 -1.8,21.1 -2.7,31.6 -0.4,9.3 -0.4,18.5 -0.7,27.8 -2.2,106.2 -3,212.9 2.4,319 3.8,77.1 6,154.2 10.8,231.3 2.3,38.5 5.2,76.9 6.5,115.4 1.2,35.6 0.8,71.2 2.7,106.7 0.2,2.2 0.5,4.3 0.8,6.5 1.4,7.7 1.6,15.7 0.6,23.7 -5.3,39 -37.8,65.6 -75.1,68 -3.4,0.7 -6.9,1.3 -10.5,1.6 -13.6,1.2 -27.1,2.1 -40.8,3 3.6,-0.2 7.2,-0.4 10.8,-0.7 -38.8,2.7 -77.5,6 -116.4,8.6 3.7,-0.3 7.2,-0.5 10.8,-0.7 -7.7,0.5 -15.3,1.2 -22.9,1.8 0.1,10.5 -0.2,21 0.3,31.4 4.7,62.1 12.4,123.8 17.6,185.8 3.6,42.8 5.2,85.9 7.4,128.9 1.1,21.5 1,43.2 1.9,64.8 1.4,5.7 2.1,11.6 2.1,17.7 0.1,38.7 -29,71.7 -66.1,78.1 -9.6,5.8 -20.3,9.8 -31.7,11.5 -8.6,1.3 -17.3,1.1 -26,1.1 -13.1,0 -26.2,-0.1 -39.3,-0.3 -35.3,-0.7 -70.6,-1.1 -105.8,-1.2 -40.4,-0.2 -80.6,-1.6 -120.9,-1.4 -44.8,0.2 -89.1,-1.6 -133.7,-4.6 -32.9,-1.6 -65.8,-1.2 -98.8,0.6 -11.1,0.7 -22.1,0.6 -33.1,0.4 -0.2,23.6 -0.5,47.2 -0.4,70.9 0,31.4 -0.3,62.9 0.8,94.4 2.9,8.1 4.5,16.8 4.5,25.9 0.1,32.3 -20.1,60.8 -48.4,73 -14.4,14.6 -34.2,23.9 -55.7,23.4 -2.8,-0.1 -5.7,0.1 -8.5,0.2 -2.6,0.2 -5.1,0.5 -7.6,0.7 -38,3.3 -75.6,9.3 -113.6,13.5 -74.6,8.2 -149.3,12.3 -224.3,16.5 -69.7,3.8 -139.3,4.7 -209.1,7.7 -37.4,1.7 -74.8,0.4 -112.3,0.4 -43.2,0 -79.4,-35.9 -79.4,-79.2 0,-0.5 0.1,-1 0.1,-1.6 -1.3,-4.3 -2.4,-8.8 -2.9,-13.5 -3.2,-34.3 -3.2,-69 -5.2,-103.4 -0.6,-8.3 -1.2,-16.6 -1.7,-24.9 -5.4,-77.5 -8.8,-155 -8.8,-232.7 0,-76.1 2.6,-152.1 2.6,-228.1 0.1,-70.5 -0.6,-140.9 -1,-211.3 -0.1,-25.2 -1.1,-50.6 -1.7,-75.9 -0.8,0.1 -1.6,0.1 -2.3,0.1 0.7,0 1.5,-0.1 2.3,-0.1 0,-0.1 0,-0.1 0,-0.2 -34.5,2.2 -68.9,3.2 -103.4,4.9 -16.9,0.8 -33.8,1 -50.7,0.7 1.1,38.3 2,76.5 2,114.8 0,68.7 2.4,138 -2,206.6 -2.6,39.2 -7.5,78.1 -12.2,117.2 -2.7,23.4 -6.1,47 -8.5,70.6 1.8,6.4 2.7,13.2 2.8,20.2 0,32.6 -20.7,61.3 -49.5,73.3 -6.8,6.6 -14.7,12.1 -24,15.4 -20.6,7.3 -41.7,9.2 -63,13.3 -18,3.4 -35.9,6.8 -54.2,9 -42,5.1 -84.7,5.9 -127,8.5 -0.6,0.1 -1.3,0.1 -1.9,0.2 -0.1,14.5 -0.2,29.1 -0.1,43.6 0.4,47 1.8,94 2.1,141 0.4,73.2 1.7,146.5 4.2,219.7 2.8,82.2 3.7,164.1 3.7,246.3 0,38.1 0,76.2 0.5,114.4 0.4,29.8 0.5,59.9 1.8,89.8 1.6,6.2 2.5,12.7 2.5,19.4 0.1,30.5 -18,57.2 -43.7,70.5 -15.9,20.3 -40.9,33.2 -67.3,31 -19.1,0.9 -38.2,0.8 -57.2,0.7 -14.1,-0.1 -28.4,-0.3 -42.4,0.1 -31.9,0.7 -64.2,2.3 -96.1,4.4 -35.1,2.6 -70.1,4.6 -105.3,6.8 3.6,-0.3 7.2,-0.5 10.8,-0.7 -45.4,3.2 -90.8,4.9 -136.2,8 3.6,-0.2 7.2,-0.4 10.8,-0.7 -2.7,0.2 -5.3,0.4 -7.9,0.5 -0.7,0.1 -1.4,0.1 -2.1,0.2 -49.8,3.4 -99.6,3.1 -149.4,6 -18.1,1.4 -36.3,3 -54.5,3.2 -17.6,0.2 -35.2,0.2 -52.8,0.7 -36,1 -71.8,2.8 -107.7,3.7 -31.9,0.7 -63.5,3.8 -95.4,4.4 -27.7,0.5 -54.9,0 -82.5,-1.6 -0.3,-0.1 -0.6,-0.1 -0.8,-0.1 -3,-0.2 -6,-0.4 -8.9,-0.6 1.7,0.2 3.5,0.3 5.2,0.4 -34.7,-1.9 -69.5,-1.3 -104.4,-0.7 -35.9,0.6 -71.9,1.2 -107.9,-1 -32.1,-2.6 -62.3,-10.3 -92.5,-21 -13,-4.7 -24.3,-10.1 -34.7,-20.4 -3.5,-3.4 -6.4,-7.1 -9.1,-11 -1,-0.9 -2.1,-1.5 -3.1,-2.4 -21.8,-19.8 -26.2,-49 -21.2,-76.3 -0.3,1.7 -0.6,3.3 -1,5 0.7,-3.5 1.1,-7 1.6,-10.6 2,-41.5 -0.2,-82.7 -2.9,-124.1 -1.6,-22.1 -3.2,-44.2 -4.7,-66.3 -8.9,-129.3 -16,-258.6 -23.9,-388 -3.9,-63.7 -7.9,-127.3 -9.5,-191.2 -1.6,-63.1 3.1,-125.7 7.6,-188.6 3.8,-68.6 3.5,-137.4 5.8,-206 2.4,-69 4.2,-138.3 0.7,-207.3 -1.9,-36.4 -4.5,-72.9 -5.3,-109.5 -0.5,-26 -1,-51.9 -2.7,-78 0,-0.1 0,-0.2 0,-0.4 -28,0.7 -56,1 -83.9,2.8 -4,0.3 -8,0.6 -12,0.9 3.6,-0.3 7.2,-0.5 10.8,-0.8 -26.4,2.2 -52.6,4.8 -79,5 -22.5,0.2 -45,0.4 -67.5,1.5 -25.5,2.3 -50.5,7.5 -75.6,12.2 -34.4,6.4 -68.8,11.5 -103.8,14.4 -4,0.4 -8.1,0.5 -12.2,0.8 0.4,12 0.7,23.9 1,35.9 -0.1,-3.6 -0.2,-7.2 -0.3,-10.7 1.4,65.2 4.6,130.3 4.1,195.7 -0.2,38.2 -0.3,76.5 -0.8,114.7 -0.3,24.8 -2.7,49.6 -2.7,74.4 0,43.2 -41.1,77.5 -82.9,75.6 -5.4,-0.2 -10.6,-1.1 -15.6,-2.3 -4.7,0.6 -9.3,1 -14.1,1 -9.4,0.1 -18.7,0.1 -27.9,-0.3 -14.3,-0.5 -28.6,-0.9 -42.9,-0.8 -33.9,1.1 -67.7,3.8 -101.7,4.3 3.6,0 7.2,-0.1 10.8,-0.1 -46.6,1 -93.1,3 -139.6,4.1 -24.8,0.6 -49.6,1.1 -74.5,1.6 3.6,0 7.2,0 10.8,-0.1 -42.9,1 -85.8,3.6 -128.9,4.2 -17.5,0.2 -34.9,-0.2 -52.3,-0.6 -17.6,-0.5 -35.3,-0.9 -52.9,-0.7 -63.8,1.6 -127.2,2.6 -191,1.2 -43.5,-1 -86.8,-0.6 -130.3,-3.2 -42.2,-2.6 -84.4,-5.3 -126.7,-4.8 -29,0.9 -58,3 -87,5 -12.4,0.9 -24.9,1.7 -37.3,2.5 -9,0.7 -18.1,1.5 -27.2,1.4 -0.1,56 -1.4,112 -1.6,168 -0.3,62.1 0.6,124.3 1.3,186.4 0.6,66.9 -0.7,133.7 0.5,200.5 0.5,19.5 1.1,39 1.5,58.6 0,-0.3 0,-0.5 0,-0.8 0.3,10.4 0.5,20.8 0.7,31.2 1.5,47.6 5.4,95.3 8.2,142.9 1.5,24.2 3.1,48.4 4.5,72.6 0.7,11.6 1.3,23.2 2.1,34.8 5.3,11.3 8,23.8 7.3,36.9 -2,38.5 -22.8,77 -64.2,85.1 -0.1,0 -0.2,0 -0.3,0 -8.6,6.4 -18.5,11.2 -29.8,13.6 -10.9,2.4 -21.6,2.4 -32.7,2.4 -16,0.3 -32,-1 -48.1,-1.5 -2,0 -4.1,0 -6.1,0 0,2.1 -0.1,4.3 -0.1,6.4 0.1,33 0.2,66 1.9,99 2.4,47.3 4.7,94.4 5.2,141.7 0.7,46.3 0.4,92.7 2.1,139 10.3,25.1 8,54.3 -10,77.8 -19.5,25.3 -54.7,36.4 -85,28.1 -3.5,0.3 -6.9,0.8 -10.5,0.6 -1.5,-0.1 -2.9,-0.1 -4.3,0 -4.8,0.4 -9.5,1.1 -14.2,1.9 -23.3,5.1 -46.4,9.9 -70.1,12.9 -25.3,3.2 -50.7,3.6 -76.1,5.1 -22.5,1.7 -44.8,4.3 -67.3,5.5 -37.6,1.9 -75.1,2.3 -112.7,4.6 -48.4,3.7 -96.8,8.3 -145.2,12 -36.8,2.7 -73.6,4.7 -110.5,2.9 -26.3,-1.2 -52.6,-2.3 -78.9,-3.7 -8.8,-0.4 -17.7,-1 -26.5,-1.9 -2.1,37.9 -4.8,75.8 -7.4,113.7 0.2,-2.6 0.3,-5.1 0.5,-7.6 -0.4,5.2 -0.7,10.4 -1,15.5 0,-0.5 0,-1.1 0.1,-1.7 -0.2,3 -0.4,6.1 -0.6,9.1 0,0.5 -0.1,1.1 -0.1,1.6 0,-0.2 0,-0.4 0,-0.6 -1.8,31.3 -2.8,62.6 -3.6,94 -1,35.8 -3.1,71.4 -4.1,107.1 -1.9,71.6 0.4,143.1 -2.1,214.7 -2.7,77.6 -2.4,155.2 -4,232.7 -0.7,28.9 -0.7,60 -8.3,88.1 -8.4,30.5 -32.4,54.3 -62.8,60.6 -6.5,3 -13.4,5.4 -20.9,6.4 -39.1,5.4 -78.8,8.9 -118.3,9.9 -38.7,1 -77.4,1.3 -116.1,3.5 -20.4,1.8 -40.5,5.8 -61,7.4 -25.4,2 -50.8,2.3 -76.3,3.9 -13.4,1 -26.9,2 -40.3,2.9 -52.1,3.7 -103.8,6.1 -156,6.1 -36.7,0 -73.3,0 -109.9,0 -63,0 -126,0.2 -189,1.1 -29.9,0.4 -59.7,1.6 -89.5,3.1 -28.3,1.5 -56.5,0.8 -84.8,2.3 -19.5,1.6 -39,4 -58.5,4.4 -16.1,0.4 -32.2,0.5 -48.2,1.4 -14.3,1.4 -29.6,4.7 -44.3,4.9 -5,1 -10.1,1.6 -15.4,1.6 -43.2,0 -79.4,-35.9 -79.5,-79.2 0,-0.6 0.2,-1.2 0.2,-1.8 -3.5,-8.8 -5.7,-18.3 -5.7,-28.3 0,-28.9 1,-57.6 1.4,-86.5 0.5,-48 3.8,-95.8 6.4,-143.8 2.6,-51.8 3.9,-103.7 1.7,-155.6 -1.3,-26.5 -3.4,-53 -4.2,-79.6 -0.7,-26.7 -0.8,-53.5 -1.2,-80.2 -0.7,-39.5 -0.6,-79 -0.9,-118.6 -0.4,-37.9 -2.3,-75.6 -3.3,-113.5 -1.9,-73.2 -2.7,-146.3 -2.8,-219.5 0,-71.5 0.7,-143 -0.2,-214.5 -0.9,-73.7 -1.2,-147.5 -3.4,-221.2 -2.2,-72.7 -4.5,-145.3 -4.7,-218.1 -0.1,-37.6 -0.4,-75.3 -0.6,-112.9 -37.1,-0.3 -74.2,-1.1 -111.3,-1.4 -26.6,-0.2 -53.3,-0.9 -80.1,-2.4 -35.8,-2.1 -71.2,-6.6 -106.9,-9.5 -35.1,-1.8 -70.3,-1.8 -105.5,-1.8 -40.6,0 -81.3,0.1 -121.8,-2.7 -11.7,1.9 -23.8,1.3 -35.3,-2 0.2,0.1 0.3,0.1 0.5,0.2 -0.3,-0.1 -0.7,-0.2 -1.1,-0.3 0.2,0 0.3,0 0.4,0.1 -1.2,-0.4 -2.4,-0.7 -3.5,-1.1 -6.1,-1.8 -12,-4 -17.9,-7.5 -13.1,-7.7 -23,-18.8 -29.6,-31.4 -5.4,-6.4 -9.9,-13.6 -13.4,-21.4 -6,-13.3 -6.7,-28 -7.5,-42.4 -2.4,-43.3 -3.6,-86.7 -6,-130 -4.8,-84.8 -5,-169.8 -5.7,-254.6 -0.6,-80.2 -2.1,-160.1 -6.3,-240.1 -2,-37.3 -4.6,-74.5 -6.5,-111.7 -2.1,-39.7 -2.5,-79.3 -3.4,-119 -1.7,-75.4 -3.4,-150.9 -4.2,-226.2 -0.4,-36.3 -0.7,-72.5 -1.6,-108.7 -0.1,-3.7 -0.1,-7.5 -0.1,-11.3 -45.1,-2.8 -90.2,-6.1 -135.3,-9.1 -70.2,-3.5 -140.5,-1.4 -210.7,-4.9 -20.3,-1 -40.5,-1.2 -60.8,-1.4 1.1,65 2.9,129.9 7.2,194.9 4,54.7 8,109.4 10.7,164.1 2.5,52.6 6.2,105.1 8.7,157.7 4.9,103.3 4.5,206.7 4.4,310.1 0,73.1 -0.6,146.2 -0.6,219.4 0,71 -0.2,141.8 -2.9,212.7 -2.5,64 0.1,128.2 -1,192.2 -0.5,26.8 -2.2,53.6 -2.2,80.3 0,43.2 -35.9,79.4 -79.2,79.5 -8.9,0 -17.4,-1.8 -25.5,-4.6 -0.1,0 -0.2,0 -0.2,0 -0.1,0 -0.2,0 -0.3,0 -8.9,1 -17.8,2.8 -26.8,3.6 -19.9,1.8 -39.6,4.3 -59.5,5.6 -27,1.9 -54,1.5 -80.9,3.3 -4.2,0.3 -8.3,0.6 -12.5,0.9 3.6,-0.3 7.2,-0.5 10.8,-0.8 -21.9,1.5 -43.6,4.2 -65.4,6.7 -26.2,3.1 -52.4,3.6 -78.7,4.7 -26.7,1.3 -53.5,3.3 -80.3,4.5 -46.4,2.1 -92.8,3.2 -139.4,4.5 -33.8,0.8 -67.6,3.8 -101.5,5.4 -34.7,1.7 -69.5,3.2 -104.2,4.5 -54.4,1.9 -109,1.8 -163.4,1.7 -17.3,0 -34.5,0 -51.7,0 -47.2,0.1 -94.3,1.6 -141.5,2.5 0.2,3.2 0.2,6.4 0.4,9.7 8,106.6 4.9,213.7 6.9,320.6 1,55.4 2.4,110.7 2.5,166.1 0.1,31.2 0,62.5 0.3,93.7 0.1,21.6 -0.4,43.4 0.5,65 0.9,6.5 0.9,13.2 0,19.7 -2.8,20.5 -13.7,39.4 -30,52.2 -9,6.9 -18.9,11.3 -29.4,13.8 -12.5,7.6 -26.6,11.4 -41.9,12.4 -0.8,0 -1.6,0.1 -2.4,0.1 -10.8,1 -21.7,2.3 -32.5,3.7 -35.4,4.6 -70.7,7.2 -106.2,10.2 -42.5,3.8 -84.8,8.6 -127.6,9.9 -29.9,0.9 -59.8,1.2 -89.8,1.9 -31.5,0.6 -62.8,2.4 -94.4,2.4 -15.3,0.1 -30.5,0 -45.7,0 -56.8,-0.2 -113.6,-0.4 -170.3,2.8 -32.2,2.4 -64.3,5.2 -96.5,5.9 -34.1,0.9 -68.2,1.9 -102.3,3.4 -68,3 -136.3,1.5 -204.4,3.9 -35.2,1.2 -70.5,2.6 -105.8,2.8 -32.9,0.2 -65.8,0 -98.7,1 -34.6,1 -69.2,3.7 -103.8,5 -32.6,1.3 -65.1,1.3 -97.7,1.8 -77.5,1 -154.9,5.9 -232.4,7.1 -52.5,0.8 -104.9,1.8 -157.4,2.4 0,6.4 0.1,12.9 0.1,19.3 0,46.4 0,92.8 -1.9,139.3 -4.9,120.8 -7.6,241.7 -9.8,362.6 -1.3,70.9 -1.7,141.8 -1.7,212.7 0,72.7 -0.4,145.5 1.5,218.2 1.9,75.6 4.6,151.2 4.6,226.9 0,36.5 0,73 0,109.5 0,20.4 -0.4,40.8 0,61.3 4.3,9.6 6.7,20.1 6.7,31.2 0.1,43.1 -36,79.4 -79.2,79.4 -0.3,0 -0.6,0 -0.8,0 -5.5,0 -10.9,-0.6 -16.2,-1.6 -16.9,3.1 -33.9,4.8 -51.1,6 -48,3.5 -96.1,8.7 -143.9,14.8 -40.6,5.2 -80.9,9.9 -121.9,11.8 -48,2.3 -96.1,3.5 -144.1,6.7 3.5,-0.3 7.2,-0.5 10.7,-0.8 -6.6,0.4 -13.2,0.9 -19.8,1.3 3.6,-0.2 7.2,-0.5 10.8,-0.7 -50.1,3.5 -100,4.8 -150.2,6.3 -51.1,1.5 -102.2,4.1 -153.3,5 -97.3,1.8 -194.4,3.1 -291.6,3.1 -74.5,0 -149,0.6 -223.3,-0.6 -73.7,-1.2 -147.5,-1.6 -221.1,-4.6 -74.9,-3.2 -149.7,-6.9 -224.8,-9.7 -79.2,-3 -158.1,-8.2 -237.2,-14.5 -33.4,-1.6 -66.9,0.4 -100.2,2.7 3.6,-0.3 7.2,-0.5 10.7,-0.8 -42.1,2.9 -84.1,2.9 -126.3,2.8 -11.6,0 -23.2,0 -34.8,-0.9 -24.5,-1.9 -48.6,-18.7 -60.7,-40.7 -17.1,-14.6 -28.4,-36 -28.4,-59.8 0,-43.4 0.5,-86.7 0.6,-130.1 0.1,-57.3 1.5,-114.9 -1.2,-172.1 -2.8,-55.4 -5.2,-110.6 -5.4,-165.9 -0.3,-54.7 -1.2,-109.1 -3.6,-163.7 -6.9,-148.6 -2.1,-297 -2,-445.7 0.1,-139.4 2.9,-278.8 9,-418.2 3,-68.3 2,-136.8 2,-205.2 0,-72 0.9,-144 1.1,-216 0.3,-75.3 0.7,-150.6 0.7,-226 0,-16.1 -0.1,-32.2 -0.2,-48.3 -7.5,1 -14.9,2.3 -22.4,3.4 -11.6,1.9 -23.4,2.1 -35.1,3.6 -19.7,2.4 -39.4,2.8 -59.2,4 -19.6,1.5 -39.1,3.7 -58.7,3.7 -18.2,0 -36.6,0 -54.9,-0.2 -49.1,-0.5 -98,-3.5 -147,-6.7 -30.8,-1.5 -61.9,0.1 -92.6,-3.6 -40,-4.9 -72.9,-36 -74.4,-77.4 -5.6,-11.3 -8.8,-23.6 -9.4,-37.2 -1.1,-27.4 -0.2,-54.9 -1.6,-82.4 0.3,3.6 0.5,7.2 0.8,10.8 -4.8,-68.5 -8.5,-137 -11.2,-205.5 -54.2,2.1 -108.4,-0.9 -162.5,-4.6 -31.3,-1.8 -62.6,-1.8 -93.9,-2.9 0,14 0.1,28 0.1,42 0.2,39.7 -0.4,79.8 2.2,119.5 -0.3,-3.6 -0.5,-7.2 -0.8,-10.7 0,0.1 0,0.1 0,0.2 -0.6,-3.4 -1.4,-6.8 -2,-10.3 0,0.1 0,0.1 0,0.1 -0.3,-0.5 -0.5,-0.9 -0.7,-1.4 5,17.4 4.5,36.5 -2.5,53.4 -12.7,30.2 -41.1,47 -71.3,47.8 -10.3,4.9 -21.5,8 -33.5,8.2 -26.9,0.7 -53.8,1.3 -80.6,2.6 -53.9,2.7 -107.9,2.1 -161.7,1.5 -119.1,-1.2 -238.1,-9.5 -357.1,-9.6 -11.9,0 -23.8,0 -35.7,0 -65.9,0.1 -131.9,0.1 -197.7,-2.9 -39.1,-1.7 -78.2,-4.3 -117.3,-5.3 -38.5,-0.9 -77.1,-0.6 -115.7,-2.5 -23.5,-1.2 -46.9,-2.1 -70.4,-2.6 -0.4,10.3 -0.7,20.5 -1.4,30.8 -0.5,7.8 -1.5,15.5 -2.3,23.2 0,1.1 0.1,2.2 0.1,3.4 0.1,43.2 -36,79.4 -79.2,79.4 -0.6,0 -1.1,-0.1 -1.7,-0.1 -1.6,0.3 -3.2,0.9 -4.9,1 -11.9,1.1 -23.7,1.8 -35.4,3.8 -11.7,1.9 -23.2,4.4 -35,5.6 -34.1,3.9 -68,8 -102.3,10.5 1.2,-0.1 2.4,-0.1 3.5,-0.2 -22.2,1.6 -44.3,4.2 -66.5,5.5 -22.1,1.3 -44.3,1.2 -66.4,1.3 -51.6,0 -103.1,-0.3 -154.6,2.1 -54.4,2.6 -108.8,4.9 -163.3,5.6 -52.7,0.8 -105.4,0.2 -158,0.2 -71.5,0 -142.9,-0.3 -214.3,-0.8 -78.3,-0.8 -156.5,-3.9 -234.8,-4.3 -41.1,-0.1 -82.2,-0.3 -123.3,-1.7 -37.7,-1.3 -75.4,-3.7 -113,-4.1 -36.5,-0.3 -72.9,-0.1 -109.3,-0.8 -36.7,-0.6 -73.3,-3 -110,-5.5 -26,-1.7 -52.1,-2.5 -78.3,-3.7 -17.4,-0.8 -34.6,-2.1 -51.5,-6.7 -30,-8.2 -55.1,-28 -63.6,-59 -5.3,-18.8 -2.9,-38.2 4.9,-55.5 -2.1,-19.5 -1.6,-39.7 -2.4,-58.9 -1.1,-29.7 -2,-59.4 -2.8,-89 -1.6,-60.6 -2.1,-121.2 -2.2,-181.7 -0.3,-58.3 -0.9,-116.8 0.7,-175.1 1.8,-60.4 6.2,-120.5 10.2,-180.8 0,0.8 -0.1,1.5 -0.1,2.2 0.3,-4.2 0.5,-8.3 0.8,-12.5 -0.1,1.4 -0.2,2.8 -0.3,4.2 0.9,-13.6 1.8,-27.3 2.7,-41 -0.2,3.7 -0.5,7.2 -0.7,10.8 5.3,-85.9 5.6,-172 9.7,-257.9 -21.9,0 -43.9,-0.2 -65.9,-1 -35.5,-1.4 -71,-3.3 -106.6,-3.3 -31.4,0 -62.9,0 -94.3,-0.2 -0.5,71.8 -1.5,143.6 -2.1,215.4 -1.1,111.2 -3.8,222.1 -10.8,333.1 0,-0.9 0.1,-1.7 0.1,-2.5 -0.4,7.2 -0.9,14.5 -1.4,21.8 0.2,-3.6 0.5,-7.2 0.7,-10.8 -0.2,3.7 -0.5,7.4 -0.7,11 -4.1,65.2 -6.3,130.6 -9.3,195.8 -3.5,75.4 -2.4,151 -1.9,226.4 0.3,74.9 0.4,149.7 0.2,224.4 -0.1,39.4 -0.2,78.9 -1.2,118.4 -0.8,26.2 -2.9,52.9 -2.6,79.3 4.1,9.4 6.4,19.7 6.4,30.5 0.1,43.2 -36,79.5 -79.2,79.5 -5.8,0 -11.4,-0.5 -17,-1.6 -0.9,0.2 -1.7,0.6 -2.5,0.8 -11.5,3.9 -23.1,7.5 -34.9,10.5 -27.9,7.1 -56.7,6.4 -85.2,8.2 -43.1,3 -86.2,6.1 -129.5,6.7 -36.3,0.5 -72.8,0.4 -109.1,0.4 -26,-0.1 -51.9,-0.2 -77.9,-0.1 -43.9,0.2 -88,2.1 -132,0.9 -28.5,-0.8 -56.7,-3.2 -85.1,-5.4 -5.3,-0.1 -10.5,0 -15.7,0 -0.1,0 -0.1,0 -0.1,0 0,0 0,0 -0.1,0 -43.2,0 -79.4,-35.9 -79.4,-79.2 0,-3.2 0.5,-6.2 0.9,-9.3 -4.6,-11.1 -7,-23 -7.2,-35.5 -0.4,-13.8 -0.9,-27.5 -1.6,-41.3 -4.7,-60.2 -10.6,-120.4 -15.1,-180.7 -4.7,-63.7 -8.5,-127.4 -12.8,-191.2 0.3,3.5 0.5,7.2 0.8,10.7 -0.3,-4.1 -0.6,-8.3 -0.9,-12.4 -0.8,-11.5 -1.7,-23 -2.5,-34.5 -12.7,0.3 -25.3,0.7 -38,1.2 -22.5,1.1 -45,1.5 -67.5,2.4 -22.9,0.9 -45.6,2.6 -68.5,2.9 -28.4,0.2 -56.7,1.8 -85.1,2.8 -29.4,1 -58.8,1 -88.2,2.9 3.5,-0.2 7.2,-0.5 10.7,-0.7 -45.3,3.1 -90.9,4.2 -136.3,6.2 -29.6,1.3 -59.2,1.2 -88.7,1.1 -1.6,0 -3.1,0 -4.6,0 0,12.4 -0.2,24.9 -0.2,37.3 0,90.4 -3,180.8 -4,271.2 -0.7,72.4 -3.2,144.8 -3.2,217.3 0,73.1 0,146.2 0,219.3 0,141.5 -0.1,282.9 0.1,424.4 0.1,66.4 1.1,132.8 1.9,199.2 0.8,66.2 3,132.4 3.5,198.7 0.5,68.9 1.2,137.9 2.5,206.9 1.3,71.3 0.9,142.7 3.2,214.1 2.3,72.1 1.9,144.4 3.2,216.6 1.1,71.3 1.5,142.6 3.5,213.9 1.8,65.1 4.5,130.1 5,195.2 0.4,49.1 3.5,98.1 3.6,147.2 0.3,45.4 0.1,90.9 0,136.4 0,50.5 0,100.9 -3,151.3 -0.6,11.4 -0.8,22.9 -0.8,34.3 0,41.4 -32.9,75.8 -73.6,78.9 -10.7,5 -22.4,7.9 -35.5,8.3 -5,0.1 -10,0.1 -15.1,0.3 -16,0.5 -32.2,1.1 -48.1,2.1 -20.1,1.4 -40.2,2.6 -60.3,3.9 3.6,-0.3 7.2,-0.5 10.8,-0.8 -29.4,2.1 -58.9,3.6 -88.3,5.5 3.7,-0.3 7.2,-0.5 10.8,-0.8 -79.6,5.6 -159.2,7.7 -239,10.5 -94.6,3.2 -189.3,3 -283.8,9.1 -73.2,4.9 -146.5,6.2 -219.8,8 -32.5,0.9 -65,1.9 -97.5,2.9 -35.2,0.9 -70.5,0.6 -105.8,2.5 -68.7,3.9 -137.4,7.3 -206.2,7.6 -70.2,0.4 -140.1,4.1 -210.2,5.3 -39,0.6 -77.9,-0.1 -116.8,-0.8 -2.7,-0.1 -5.4,-0.1 -8.1,-0.1 -0.3,73.9 -0.9,147.8 -0.9,221.7 0,74.1 0,148.2 0.2,222.4 0.3,78.3 1.8,156.6 1.3,234.9 -0.5,79.6 -3.9,159 -5.8,238.5 -1,41 -1.9,82 -3.8,123.1 -1.3,30.7 -2.9,61.4 -2.3,92.2 18,30.3 14.1,70.9 -11.7,96.8 -17.3,17.4 -41.3,24.7 -64.4,22.4 -15,10.4 -33.4,15.7 -52.2,14.4 -0.3,0.1 -0.5,0.1 -0.8,0.1 0.2,0 0.4,0 0.7,-0.1 -0.1,0 -0.2,0 -0.3,0 -15.3,0.9 -30.6,1.4 -45.9,2.3 -37.8,3.1 -75.2,9.4 -112.9,13.3 -47.4,4.9 -94.9,6.5 -142.5,9.8 3.6,-0.3 7.2,-0.5 10.7,-0.8 -75,5.3 -150.1,7 -225.1,11.3 -74.9,4.3 -150.1,3.4 -225.1,2.8 -74.7,-0.8 -149.3,-4 -224,-8.2 -150.6,-8.7 -301,-22.7 -451.5,-32.9 -40,-2.3 -79.7,-3 -119.6,-3.6 -41,-0.7 -82.4,-1 -123.2,-5.8 -16.2,-1.9 -32.6,-4.1 -48.5,-8.2 -18.5,-4.7 -34.9,-14.3 -46.9,-27.9 -22.9,-6.5 -43.1,-22.4 -52.1,-46.4 -10.2,-27.2 -8.7,-58.8 -9.1,-87.5 -0.7,-52 -2.3,-103.9 -5.3,-155.8 -10,-133.5 -28.5,-266.5 -32,-400.3 -3.7,-139.9 -0.5,-279.6 0.7,-419.4 0.8,-79.6 0.2,-159.2 1.7,-238.9 1.5,-78.2 6.3,-156.2 6.5,-234.5 0.2,-76.5 -3.6,-152.7 -5,-229.2 -0.5,-34.3 -0.6,-68.6 -0.6,-102.9 -0.1,-19.2 0.6,-38.6 -0.3,-57.8 -0.2,-1.9 -0.5,-3.9 -0.8,-5.8 -0.8,-2.7 -1.1,-5.4 -1.6,-8.2 -59.3,1.9 -118.5,3.9 -177.7,5.8 -38.6,1.2 -77.3,1.1 -115.9,1 -24.8,0 -49.5,-0.1 -74.2,0.2 -57.6,0.6 -115.2,1.4 -172.7,1.7 -0.8,3.5 -1.6,7 -2.9,10.3 0,0.4 0,0.7 -0.1,1.1 -2.7,49.3 -1.8,98.9 -1.1,148.4 1.1,100 9,200 14.5,300 4.6,84.7 4.4,169.3 4.4,254.1 -0.1,78.8 0.6,157.6 -1,236.3 -1.8,79.2 -9.4,158.1 -10.9,237.2 -1.6,80.2 -0.8,160.3 -4.1,240.5 -6.6,162.7 -8.4,325.5 -8.4,488.3 0,81.1 0.1,162.2 -0.6,243.3 -0.2,39.8 -0.7,79.6 -2.4,119.5 -1.3,30.8 -3.3,61.7 -2.6,92.6 2.9,8.2 4.6,17.1 4.6,26.3 0,19.4 -7.5,37.1 -19.4,51.1 -12.2,28.3 -40.4,48.5 -72.7,48.5 -1.9,0 -3.6,-0.4 -5.5,-0.5 -4.4,0.6 -8.9,1.1 -13.5,0.9 -31.1,-1.6 -62.6,0.2 -93.6,2.2 -0.9,0.1 -1.7,0.2 -2.6,0.2 1.4,29.1 0.3,58.4 0.5,87 0.6,79.8 2.5,159.9 7.4,239.5 4.5,62.9 9.8,125.8 10.2,188.9 0.6,65.3 -1,130.8 2.2,196.1 6.4,11.6 10,24.6 10,38.9 0,43.2 -35.9,79.4 -79.2,79.4 -10.4,0 -20.4,-2.1 -29.6,-5.8 -6.6,3 -13.5,5.5 -20.9,6.8 -25,4.4 -49.7,8.9 -75,11.6 -42.6,4.6 -85.3,7.2 -128.1,9.1 -92.6,3.9 -186.2,2.7 -278.7,-3.3 -0.2,-0.1 -0.4,-0.1 -0.5,-0.1 2.4,0.2 4.8,0.4 7.1,0.5 -2.6,-0.1 -5.3,-0.3 -8,-0.5 -1,0 -2,-0.1 -3.1,-0.2 -46.7,-3.1 -93.3,-6.4 -140,-9.7 -38.7,-2.7 -77.3,-6.3 -116,-9.2 -41.6,-2.1 -83.4,-1.8 -124.9,-6.8 -20.3,-2.5 -40.4,-5.8 -60.7,-8.4 -13.3,-1.6 -26.8,-2.8 -40,-5.4 -23.8,-4.7 -48.4,-10.3 -69.6,-22.8 -28,-16.7 -43.6,-48.5 -39.1,-80.5 -2.8,-10.2 -4,-20.9 -4.6,-31.9 -1.9,-36.8 -0.8,-73.9 -1.7,-110.8 -1.9,-81.4 -5,-162.8 -10.5,-244 -0.6,-8.5 -1.2,-17 -1.7,-25.5 -0.5,-6 -1,-12 -1.4,-17.9 -0.9,-8 -1,-16 -1.5,-23.9 -0.7,-9.7 -1.4,-19.4 -2.1,-29.1 -2.1,-30.5 -3.7,-61 -5.8,-91.5 -2.5,-34.9 -5.9,-69.7 -8,-104.6 -1.5,-24.4 -2.1,-48.8 -3.5,-73.1 0,-0.3 -0.1,-0.5 -0.1,-0.8 -14.9,-0.2 -29.9,-0.7 -44.8,-1.4 -19.5,-0.8 -39,-1.6 -58.5,-1.5 -5,1.1 -10.2,1.6 -15.5,1.6 -26.6,0 -54.6,-8.3 -70.6,-31.4 -13.6,-19.7 -19.8,-42.4 -14.5,-66 -3.5,-13.5 -4,-28 -4.2,-42.3 -0.1,-18 -0.1,-36 -0.2,-54.1 -0.1,-37.6 -0.4,-75.1 -1.6,-112.7 -2.1,-71.8 -6.1,-143.5 -9.5,-215.2 -6.8,-145 -11.7,-290 -14.1,-435.2 -2.7,-161.7 -5.6,-323.5 -5.9,-485.4 -0.2,-76.8 0.3,-153.6 0.6,-230.5 0.3,-46.2 1,-92.6 -1.1,-138.8 -31.2,0.3 -62.3,0.3 -93.5,0.3 -72.1,0 -144.3,0.8 -216.4,-0.7 -16.7,-0.3 -33.3,-0.8 -49.9,-1.4 2,54 3.4,108 6.7,161.9 5.6,75.3 13.5,150.5 16.5,226.1 2.9,69.5 1.8,139 5.4,208.3 7.2,11.9 11.4,25.7 11.4,40.4 0.1,43.2 -36,79.4 -79.2,79.4 -13.3,0 -27,-3.5 -39.4,-9.6 -7.8,2.5 -15.9,4.1 -24.5,4.6 -9.2,0.5 -18.5,1.1 -27.8,1.5 -285.7,11.5 -571.6,20.7 -857.5,12.9 -57.5,-1.6 -115,-1.5 -172.5,-1.5 -17.5,0 -34.9,0 -52.3,-0.1 -12.4,0 -24.9,0 -37.4,0.1 -66.2,0 -132.5,0.1 -198.6,-3.9 -36.6,-2.1 -73.1,-3.9 -109.7,-5.3 -39.8,-1.5 -79.4,-4 -119.2,-4.7 -43.5,-0.7 -87.2,-3.2 -130.8,-3.2 -29.9,0 -56.1,-17.3 -69.6,-42.2 -16.7,-12.4 -28.1,-30.2 -31.6,-52.4 -2.7,-17.4 -1.8,-36 -2.8,-53.6 -2.1,-39.2 -4.6,-78.4 -7.2,-117.5 -5.2,-78.1 -10.7,-156.3 -12.7,-234.7 -1.9,-78.5 -1.6,-157 -1.7,-235.6 0,-36.9 0,-73.7 0,-110.6 0,-18.5 0.2,-37.1 -0.2,-55.7 -23.8,-0.8 -47.7,-1.1 -71.5,-2.3 -9.3,-0.5 -18.5,-1.3 -27.8,-1.9 -0.5,44.2 -1,88.3 -1.4,132.5 -0.7,75.3 -0.9,150.7 -1,226.1 -0.1,75.7 -1.9,151.1 -4.5,226.7 -2.8,79.1 -7,158 -8.8,237.1 -1.7,76.4 -8,152.5 -13.2,228.6 -3,47.4 -5.4,94.8 -8.5,142.2 0.2,-3.7 0.5,-7.2 0.7,-10.9 -2.9,44 -4.8,88 -7.1,132 -2.2,40.9 -6,81.7 -9,122.5 -1.9,30.5 -3.3,61 -5.3,91.4 -2.3,35.1 -5.8,70 -8.2,105.1 0.2,-3.6 0.5,-7.1 0.6,-10.8 -2.6,43.4 -6.2,86.7 -9.4,130 -4.1,65.5 -9.1,130.9 -13.5,196.4 0.3,-3.6 0.5,-7.2 0.8,-10.7 -0.5,7.1 -0.9,14.3 -1.4,21.5 -2.4,37.6 -2.9,75.1 -5.1,112.6 -2.3,38.6 -8.8,75.7 -16.4,113.4 0.2,-0.6 0.3,-1.3 0.4,-2 -2.6,13.5 -6,27 -7.7,40.6 0,3.1 0,6.1 0,9.2 0,42.5 -34.6,77.9 -76.9,79.2 -16.5,13.6 -38.1,20.8 -60.3,17.2 -22.4,-3.5 -44.8,-5.9 -67.3,-7.7 -52.6,-4.3 -105,-9 -157.5,-13.9 -33.4,-3.1 -66.5,-6.9 -99.7,-11.9 -31.3,-4.8 -62.5,-10.9 -93.9,-15.3 -35.9,-4.9 -72,-9.2 -107.8,-15.6 -41.8,-7.4 -83,-17.1 -124.4,-26.9 -71,-16.9 -141.9,-34.5 -213.2,-49.5 -28.1,-5.5 -56.3,-10.5 -84,-17.4 -22.3,-5.5 -44.4,-11.7 -66.5,-17.5 -25.9,-6.8 -51.8,-13 -77.5,-20.4 -25.8,-7.4 -51.2,-16.4 -76.5,-25.5 -44.6,-16 -90,-31.3 -133.3,-50.3 -43.3,-19 -85,-41.3 -127.2,-62.4 -21,-10.3 -42,-20.6 -62.9,-31.1 3,1.6 6.1,3.1 9.1,4.6 -9.7,-4.8 -19.9,-8.2 -29.5,-13.3 -16.8,-8.7 -32.2,-24.5 -39.1,-42.3 -4.2,-10.6 -5.7,-21.6 -5.6,-32.3 -1.1,-2.8 -2.3,-5.5 -3.1,-8.5 -3.9,-13.5 -3.4,-27.6 -4.1,-41.6 -5,-63.2 -17.2,-126 -27.6,-188.6 -10.5,-64.3 -21.7,-128.7 -32.7,-193 -13.4,-78 -27.4,-155.9 -42,-233.7 -15.6,-82.7 -32.6,-165.2 -44.7,-248.6 -24.2,-165.7 -39,-332.6 -50.3,-499.7 -0.7,-9.5 -1.4,-18.9 -2,-28.4 -22.8,0.2 -45.5,0.4 -68.2,0.5 -63.2,0.2 -126.5,0.2 -189.5,4 -30.8,2.5 -61.4,6.2 -92.2,7.7 -30.1,1.4 -60.2,2.2 -90.3,4 -33,2.5 -65.9,5 -99.1,5.4 -31.2,0.3 -62.5,0 -93.8,0 -59.4,0 -118.8,0.1 -178.3,0 -11.3,0 -22.7,0 -34,0 -48,0.1 -96,0.2 -143.7,-1.9 -61.1,-2.6 -122,-7.9 -183,-12.2 -54.7,-2.2 -109.6,0.9 -164.2,4.5 -30.2,2.4 -60.2,5.8 -90.6,7.2 -19,0.9 -38.2,0.5 -57.4,0.5 -16.1,0 -31.3,-5 -43.9,-13.5 -34.5,-8.6 -60.9,-39.9 -60.9,-76.8 0,-10.7 -0.2,-21.4 -0.6,-32 -5.1,-63.5 -15.1,-126.4 -20.4,-189.8 -6.2,-71.7 -11.4,-143.5 -15.7,-215.4 -8.1,-136.6 -10.1,-273.4 -18.3,-410 -9.4,-128.6 -23,-256.9 -34.1,-385.5 -14.3,-166.7 -23,-333.6 -31,-500.7 -7.7,-160.9 -15.3,-321.6 -21.3,-482.5 -6.1,-160.4 -3.7,-320.9 -5,-481.4 -0.6,-78.7 -2.6,-157.3 -6.6,-235.9 -1.9,-38.5 -3.5,-77 -4.4,-115.5 -0.2,-10.4 -0.3,-20.8 -0.5,-31.2 -8.4,0.3 -16.8,0.5 -25.2,0.7 -74.8,1.9 -149.4,1.2 -224,5.7 -8.1,0.7 -16.2,1.6 -24.3,2.3 -3.4,0.5 -6.9,0.7 -10.5,0.7 -0.5,0 -1,0 -1.4,0 -19.9,0.8 -39.1,-1.5 -56.2,-13.2 -14.2,-5.1 -26.9,-13.9 -37.4,-26 -11.7,-13.5 -16.3,-32 -19,-49.2 -5.1,-31.6 -6.7,-63.6 -9.4,-95.5 -1.5,-17.5 -3,-35 -4.2,-52.5 -0.9,-12 -2.6,-24.5 -3,-36.8 -1.1,-6.1 -1.6,-12.4 -1.6,-18.7 -0.8,-5.9 -1,-12 -0.7,-18 -0.1,-2.2 -0.2,-4.5 -0.4,-6.7 -2.7,-41.4 -5.5,-82.9 -8.1,-124.4 -4.9,-79 -6.3,-158.1 -11.1,-237.2 -1.7,-23.3 -4.2,-46.5 -8.2,-69.4 0,-0.1 0,-0.1 -0.1,-0.2 -19,-0.2 -38.1,-0.2 -57.1,-0.6 -76.4,-1.4 -153,-4 -229.4,-5.5 -62.9,-1.3 -125.9,-0.9 -188.9,-1.4 -35.4,-0.4 -71.2,-0.9 -106,-8.4 -9.5,2.5 -19.4,3.5 -29.9,2.1 -28.5,-3.8 -52.7,-23.3 -63.8,-49.5 -9.6,-22.6 -9.6,-48.6 -10.6,-72.7 -0.7,-17.1 -1.1,-34.4 -1.1,-51.6 0,-38.6 1.2,-77.1 3.2,-115.7 1,-20.3 2,-40.6 3,-60.9 -32,3.5 -64,5.7 -96.5,7.7 -62.5,3.9 -125,6.1 -187.5,10.1 -28.4,2.2 -56.6,6.2 -84.5,11.9 -21.3,4.5 -42.5,9.2 -64.1,12.5 -17.5,2.7 -35.1,4.9 -52.6,8.2 -3.5,0.8 -7.1,1.7 -10.6,2.7 -9.5,4.1 -19.9,6.4 -30.7,6.4 -24.7,0 -48.4,-11.2 -63.5,-30.8 -12.9,-16.5 -17.9,-37.2 -15.8,-57.1 -3.3,-13.1 -4.6,-26.9 -5.4,-40.7 -1.1,-19.3 -1.6,-38.8 -2.4,-58.3 -1.7,-41.3 -4.2,-82.6 -6.2,-123.9 -3.7,-80.6 -3.9,-161.4 -4.9,-242.1 -1,-78.1 -1,-156.1 -1,-234.3 0,-44.9 0.7,-89.8 1.4,-134.8 -4.2,0.2 -8.4,0.4 -12.6,0.5 -48.3,1.1 -96.6,0.8 -144.8,2.2 0.1,14.8 -0.1,29.6 -0.2,44.3 -0.3,62.7 -1.1,125.3 -1.9,188 -1.2,108.9 -2,217.9 -3.9,326.9 -0.6,37.6 -2.2,75.1 -2.7,112.6 -0.4,33.7 -0.6,67.4 -2.1,101.1 -3.3,77.7 -8.1,155.1 -13.3,232.7 0.2,-2.2 0.3,-4.3 0.4,-6.5 -2.7,44.4 -6.7,88.6 -9.7,133 0.1,-1.8 0.2,-3.5 0.3,-5.3 -0.2,2.4 -0.3,4.8 -0.5,7.2 0,1.2 -0.1,2.4 -0.2,3.5 0.1,-1 0.1,-2 0.2,-3 -2.4,41.7 -5.1,83.4 -7.8,125.1 0.1,-0.8 0.1,-1.7 0.2,-2.5 -3,47.8 -5.8,95.7 -7.7,143.6 -2.8,70.1 -4.2,140.2 -6.7,210.3 -1.4,40 -4.6,79.8 -5.3,119.8 -0.7,39.6 -1.4,79.3 -2.4,119 -3.7,150.4 -2.5,300.9 -2.5,451.3 0,72.9 0,145.8 0,218.7 0,74.2 -2,148.3 -3,222.4 -0.9,70.4 -3.3,140.7 -9,210.9 -2.9,35.3 -7.1,70.5 -12.1,105.6 -4.1,28.6 -9.1,57.2 -11.5,86 -0.1,1.4 -0.2,2.8 -0.2,4.2 0,29.3 -16.7,55.1 -40.9,68.9 -11.4,11 -26,18.6 -42.6,19.8 -13.9,1.1 -27.8,1.7 -41.7,2.5 -27.8,2.3 -55.5,6.9 -83.2,10.3 -48.9,6.1 -97.9,6.8 -147,9.8 -39.6,3.1 -79.2,6.8 -118.9,9.6 -38.8,2.8 -77.5,2.6 -116.3,4.9 -29.9,2.4 -59.7,6.3 -89.6,7 -143.9,3.7 -287.6,1.3 -431.5,0.5 -35.2,-0.1 -70.4,-0.3 -105.5,-2.4 -37.5,-2.3 -74.7,-7.1 -112.1,-10.7 -26,-2.5 -51.9,-4 -77.7,-8.4 -10.9,-1.9 -22,-3.5 -32.6,-6.6 -10.6,-3 -20,-7.4 -29.6,-12.5 -1.1,-0.6 -2.2,-1.2 -3.3,-1.9 -15.8,-8.4 -29.2,-20.6 -35.9,-38.5 -7.6,-20.3 -8.1,-42 -0.2,-61.4 -0.1,-2.2 -0.3,-4.5 -0.3,-6.7 -1.5,-39.4 -2.8,-78.8 -4.3,-118.1 -1.4,-37.2 -2.5,-74.4 -3.2,-111.5 -0.6,-29.1 -0.4,-58.3 -1.7,-87.3 -7.7,0.5 -15.4,0.8 -23.1,1.3 3.5,-0.2 7.1,-0.5 10.7,-0.7 -4.9,0.3 -9.8,0.6 -14.7,1 -71.4,5 -142.7,10.9 -214.2,14.7 -74.5,4.1 -148.9,5.8 -223.5,6.7 -80.3,1 -160.3,5.4 -240.6,5 -36.8,-0.2 -73.7,-0.6 -110.4,-2.8 -36.8,-2.2 -73.3,-5.9 -110.1,-8.9 -36.2,-1.9 -72.5,-1.8 -108.8,-1.8 0,0 0,0 -0.1,0 -0.8,0 -1.6,0 -2.4,0 -43.3,0 -79.4,-35.9 -79.5,-79.2 0,-4.4 0.6,-8.7 1.3,-12.9 -1.1,-3.6 -2.2,-7.1 -2.9,-10.8 -2.8,-14.6 -1.7,-31 -1.8,-46 -0.4,-51.4 -0.8,-102.8 0.2,-154.2 1.2,-63.2 4.3,-126.3 4.8,-189.5 0.5,-72 4.5,-143.5 9.4,-215.3 -0.2,3.6 -0.5,7.2 -0.6,10.8 2.9,-46.7 5.9,-93.3 8.6,-139.9 4.3,-78.4 5.7,-156.7 7.8,-235.1 1.9,-73 5.6,-146.1 7.4,-219.1 3.4,-150.1 8,-300.2 8.4,-450.2 0,-16.1 0.1,-32.1 0.1,-48.1 -11.7,0.6 -23.5,1.2 -35.3,1.9 -16.4,1.3 -32.7,3.5 -49.1,4.7 -27.3,2 -54.4,2.3 -81.6,2.3 -59.7,-0.1 -119.2,-3.6 -178.8,-3.8 -48.6,-0.1 -97.1,-0.3 -145.6,-0.8 0,7 0,14 0,21 0,42.4 0.2,85 0.5,127.5 0.5,56.3 0.9,112.7 0.3,169.1 -0.3,27.6 -0.3,55.3 -1.6,82.8 -0.8,16.7 -2.5,33.3 -2.5,50 0,42.9 -35.3,78.6 -78,79.3 -9,3.7 -18.7,5.8 -28.9,5.9 -22.3,0.3 -44.5,1.3 -66.8,1.8 -46.3,1.3 -92.4,1.5 -138.6,4.4 3.6,-0.2 7.2,-0.5 10.8,-0.7 -76.5,5.4 -153.7,8.1 -230.5,8.8 -71.7,0.7 -143.1,6 -214.9,8.4 -146.9,5 -293.8,10.5 -440.8,5.3 -35.6,-1.3 -71.1,-3 -106.8,-3.1 -35.5,0 -71.1,0 -106.6,-0.6 -38.2,-0.6 -76.4,-2.6 -114.5,-3.5 -37.9,-0.8 -75.8,-0.6 -113.7,-2.1 -35.1,-1.3 -70,-4.2 -105.1,-5 -22.2,-0.5 -44.3,-0.4 -66.6,-0.4 -14.2,0 -28.6,0 -42.9,-0.2 -75.4,-0.6 -150.6,-2 -226,-2.7 -40.3,-0.4 -80.4,1.6 -120.6,3.2 -26.4,1.2 -52.8,0.5 -79.2,0.5 -41.5,0 -76.2,-33.2 -78.9,-74.2 -5.8,-10 -9.8,-21.2 -10.7,-33.4 -2.6,-35 -2.6,-70.3 -3,-105.4 -0.8,-72.7 -1.5,-145.5 -0.6,-218.2 0.9,-76.2 6.2,-152.4 8.9,-228.6 1.4,-38.1 1.9,-76.3 3.5,-114.4 1.3,-30.1 3.3,-60 5.4,-90 -0.1,0 -0.2,0 -0.3,0 -18.5,3.3 -37.1,4.5 -55.9,5.8 3.7,-0.3 7.2,-0.5 10.8,-0.7 -42.1,3.1 -84.3,7.9 -126.2,13.1 -71.7,8.9 -143.5,4.7 -215.4,8.4 -22.2,1.9 -45,5.7 -67.2,4.6 -23.9,-1 -47.4,-4.4 -71.2,-7.8 -18.7,-2.6 -37.4,-4.5 -56.2,-6.2 -0.1,3.8 0,7.7 -0.1,11.5 -2.5,282.1 -8.7,564.1 -8.8,846.1 0,74.3 0.3,148.6 -2.1,222.8 -2.4,72.4 -3.5,144.7 -4.7,217.2 -1.1,70.7 -1.4,141.7 -3.9,212.5 -2.5,68.7 -3.2,137.2 -5.3,205.9 -2.1,72.6 -3.3,145.2 -5.5,217.7 -2.1,74.4 -8.6,148.6 -8.6,223 0.1,70.8 -0.1,141.6 4.3,212.3 2.3,36.7 4.5,73.4 4.8,110.2 0.3,28.3 0.2,56.6 1,84.8 3.6,7.5 6.1,15.6 7.3,23.9 3,21.8 -3.5,41.4 -15.7,59.2 -7.7,11.3 -18.5,19.7 -30.7,25.5 -14.3,13.9 -33.9,22.6 -55.2,23.2 -1.7,0.1 -3.3,0.2 -5,0.3 -17.4,1.2 -34.7,2.9 -52,4.1 -104.5,7.1 -209.1,10.4 -313.5,17.3 -33,2.5 -65.7,6.7 -98.7,8.5 -27.2,1.4 -54.4,1.7 -81.6,3.3 -38.2,2.9 -76.4,5.2 -114.8,6.3 -35.7,1.1 -71.4,1.6 -107.2,2.5 -29.3,0.8 -58.5,2.4 -87.8,3 -34.7,0.6 -69.4,0.5 -104,1.8 -68.2,2.6 -136.5,3.2 -204.9,2.5 -28.64,-0.3 -57.31,-2.1 -85.98,-2.7 -26.98,-0.7 -53.97,1 -80.81,2.8 -35.6,2.6 -71.06,5.2 -106.83,5.3 -12.6,0 -25.35,-0.5 -37.99,-0.2 -5.68,1.3 -11.57,2.1 -17.61,2.1 -16.86,0 -35.61,-5.2 -48.59,-16.5 -26.22,-22.8 -36.05,-54.5 -26.77,-86 -2.05,-74.7 2.01,-149.2 2.66,-223.9 0.58,-80.1 0.75,-160.2 -0.08,-240.3 -1.57,-148 -0.91,-296 -0.91,-444 0,-79.5 -0.08,-158.9 0,-238.4 0.17,-78 3.22,-155.8 4.88,-233.8 3.38,-156.1 0.08,-312.3 0,-468.4 -0.09,-82.6 1.73,-165.3 1.98,-247.9 0.25,-78.2 -0.91,-156.5 0.66,-234.7 1.57,-78.5 5.2,-156.9 5.62,-235.5 0.03,-12.9 0.09,-25.8 0.16,-38.7 -11.38,0 -22.75,0.1 -34.11,0.1 -28.52,0.1 -57.19,-0.1 -85.66,1.6 -48.91,3.9 -97.23,12.6 -146.02,17.4 -29.57,2.8 -59.4,5.4 -89.06,6.8 -34.7,1.7 -69.73,3.5 -104.44,3.7 -53.62,0.2 -107.24,-0.2 -160.78,2.8 -57.34,3.1 -114.93,4.9 -172.35,3.5 -29.08,-0.6 -58.08,-2.7 -87.25,-2.8 -9.51,0 -19.01,0 -28.51,0 -0.51,26 -1.37,52.1 -2.23,78.1 -3.31,100.5 -3.78,201.4 2.66,301.8 5.93,76.4 11.33,152.6 13.04,229.4 1.57,71.5 1.4,143 1.4,214.5 0,43.2 -35.94,79.4 -79.23,79.5 -8.67,0 -16.93,-1.8 -24.81,-4.4 -0.11,0 -0.22,0 -0.34,0 -14.81,1.7 -29.5,3.8 -44.43,4.8 -16.8,1.1 -33.68,1.6 -50.49,2.6 -58.78,4.2 -117.62,5.9 -176.47,9.1 -71.61,3.9 -143.46,5.8 -214.99,10.7 -87.38,6 -175.04,7 -262.41,12.7 -69.09,5 -138.03,11 -207.21,15.5 -69.35,4.6 -138.87,7.9 -208.23,12.5 -101.3,7.5 -202.14,20.1 -303.43,27.2 -96.55,6.5 -193.32,7.6 -289.93,10.5 -76.43,2.3 -152.61,7.7 -229.12,7.4 -67.83,-0.3 -135.66,-0.9 -203.41,-1.7 -30.74,-0.3 -61.72,-1 -92.29,-4.5 -25.2,-2.9 -50.32,-8.5 -75.1,-13.7 -22.23,-4.7 -43.05,-12.2 -63.21,-22.6 -11.02,-5.6 -21.68,-11.9 -32.49,-17.8 -17.4,-6.3 -31.58,-17.4 -42.45,-34.2 -13.3,-20.7 -13.99,-44.8 -6.08,-65.9 -1.98,-16.1 -2.41,-32.4 -3.2,-48.7 -2.81,-57.5 -5.78,-114.9 -6.69,-172.5 -1.16,-73.5 -0.33,-146.8 -4.13,-220.3 -3.8,-76.2 -8.76,-152.4 -11.4,-228.8 -5.62,-157.9 -2.15,-315.9 -5.04,-473.9 -2.65,-146.8 -10.74,-293.9 -2.56,-440.7 8.34,-148.7 21.65,-296.9 31.9,-445.5 3.23,-51.3 5.14,-102.5 7.18,-153.8 0.34,-9.1 0.78,-18.2 1.24,-27.2 -49.78,0 -99.55,0 -149.29,0 -23.9,0 -47.92,-0.5 -71.89,-0.4 2.12,59.3 4.15,118.6 6.93,177.8 10.29,13.4 16.47,30 16.47,47.9 0.08,42.3 -34.54,77.8 -76.57,79.2 -10.39,8.2 -22.64,13.9 -36.46,14.8 -15.63,1.1 -31.18,2.4 -46.81,3.4 -4.1,0.3 -8.18,0.6 -12.3,0.9 -52.68,3.9 -105.07,10.8 -157.78,14 -53.56,3.3 -107.19,5.1 -160.76,6.7 -0.1,7 -0.21,14 -0.19,20.9 0.17,32.4 0.58,64.7 1.74,97 1.57,45.7 2.56,91.4 2.64,137.2 0.08,48.4 -0.07,96.8 2.55,145.2 0.4,5 0.85,10.1 1.49,15.1 2.3,7.3 3.55,15 3.56,23 0.08,43.2 -35.94,79.4 -79.23,79.4 -15.03,0 -29.73,-4.7 -42.44,-12.7 -0.47,0 -0.94,0 -1.41,0 -24.26,1.6 -48.49,2.4 -72.84,2.8 -43.37,0.5 -86.67,2.2 -129.96,2.8 -43.13,0.6 -86.18,1.6 -129.22,3.5 -46.93,2.2 -93.86,2 -140.79,2.3 -75.35,0.2 -150.7,2.7 -226.05,4.2 -40.08,0.7 -80.15,2.5 -120.22,2.5 -36.85,0 -73.7,0 -110.55,0 -147.81,0 -295.62,-1.6 -443.43,-1.9 -17.93,0 -35.94,0 -53.87,0.1 -60.97,0.1 -122.03,0.2 -182.92,-1.5 -41.56,-1 -83.12,-3.1 -124.68,-3.6 -42.3,-0.6 -84.61,-0.7 -126.91,-1.9 -38.99,-1.1 -77.91,-2.1 -116.82,-3.9 -39.33,-1.7 -78.66,-4.9 -117.99,-5.3 -52.08,-0.5 -104.24,1 -156.18,4.4 -35.37,2.6 -70.69,5.6 -106.23,5.6 -23.13,0 -46.35,0 -69.56,0 -5.94,0 -11.69,-0.8 -17.28,-2.1 -1.7,0.4 -3.26,1.1 -5,1.3 -27.35,3.7 -57.01,-7.4 -73.62,-30 -15.29,-20.8 -20.25,-48 -13.86,-72.5 0.01,-0.1 0.02,-0.2 0.03,-0.3 3.34,-74.6 0.48,-149.5 3.34,-224.2 1.4,-35.8 3.22,-71.6 7.35,-107.3 3.18,-27.6 6.98,-55.1 9.12,-82.8 0.71,-11.5 1.34,-23 1.04,-34.6 -1.86,-17.3 1.91,-34.1 9.7,-48.6 -56.39,1.2 -112.79,2.6 -169.18,4 -77.67,2 -155.17,7.3 -232.75,10.4 -163.64,6.6 -327.52,2.6 -491.09,11.2 -38.56,3.1 -76.93,8.9 -115.52,10.8 -35.93,1.8 -71.04,-3.6 -106.58,-6.8 -4.02,0.7 -8.13,1 -12.31,1 -24.55,0 -46.6,-10.4 -62.59,-28.1 -2.62,-1.2 -5.24,-2.3 -7.79,-3.8 -17.68,-10.4 -33.04,-28.6 -37.59,-48.9 -3.14,-14.1 -4.62,-27.9 -5.12,-42.3 -1.57,-47.2 -1.41,-94.5 -1.9,-141.7 -0.58,-47 -1.82,-94 -2.31,-141.1 -0.32,-32.8 0.77,-66 -0.49,-99 -0.18,-1.5 -0.37,-3.1 -0.59,-4.7 -3.25,-15.7 -2.42,-31.5 4.05,-47 2.09,-5 4.77,-9.7 7.82,-14.1 -5.36,0 -10.74,-0.1 -16.1,-0.1 -32.23,-0.4 -64.45,-0.9 -96.67,-0.6 -76.67,0.8 -153.02,6 -229.61,7.8 -35.61,0.9 -71.38,4.1 -106.99,3.3 -26.02,-0.5 -51.71,-2.6 -77.6,-4.7 -0.84,0 -1.69,0 -2.55,0 -36.88,0 -68.44,-26.3 -76.952,-60.9 -7.368,-5.7 -13.832,-12.5 -18.922,-21.2 -8.594,-14.7 -11.817,-31.1 -13.633,-47.9 -4.215,-38.2 -2.234,-77.3 -1.488,-115.6 1.652,-80.1 2.062,-160.3 4.461,-240.3 4.543,-153.9 11.73,-307.6 18.922,-461.3 3.136,-67.7 7.351,-135.2 11.07,-202.8 1.191,-21 2.051,-42 2.976,-63.1 H 639.789 v -275 H 57600 v 275 h -266.6"
      style="fill:#111820; fill-opacity:1; fill-rule:nonzero; stroke:none" transform="matrix(0.133333, 0, 0, -0.133333, 0, 3295.320068)"
    />
    <rect x="3880.562" y="2102.24" width="35" height="25" style="stroke: rgb(0, 0, 0); fill: rgb(255, 211, 105);">
    </rect>
  </g>
</svg>